<svg xmlns="http://www.w3.org/2000/svg" viewBox="0 0 13.57 13.57"><defs><style>.cls-1{fill:#19766c;}.cls-2{fill:#fff;fill-rule:evenodd;}</style></defs><title>instagram</title><g id="Capa_2" data-name="Capa 2"><g id="Capa_1-2" data-name="Capa 1"><rect class="cls-1" x="1.84" y="1.78" width="10" height="10" rx="1.42"/><path class="cls-1" d="M10.37,0H3.21A3.22,3.22,0,0,0,0,3.21v7.15a3.22,3.22,0,0,0,3.21,3.21h7.16a3.21,3.21,0,0,0,3.2-3.21V3.21A3.21,3.21,0,0,0,10.37,0Zm2.4,10.36a2.41,2.41,0,0,1-2.4,2.41H3.21A2.41,2.41,0,0,1,.8,10.36V3.21A2.41,2.41,0,0,1,3.21.8h7.16a2.41,2.41,0,0,1,2.4,2.41Z"/><path class="cls-2" d="M10.09,3.14a.7.7,0,0,0-.7.71.7.7,0,0,0,.7.7.7.7,0,0,0,.71-.7.71.71,0,0,0-.71-.71Z"/><path class="cls-2" d="M9.12,6.78A2.34,2.34,0,1,0,6.78,9.12,2.34,2.34,0,0,0,9.12,6.78Z"/></g></g></svg>