<svg xmlns="http://www.w3.org/2000/svg" viewBox="0 0 179.44 40.93"><defs><style>.cls-1{fill:#fff;}</style></defs><title>logo_white</title><g id="Capa_2" data-name="Capa 2"><g id="Capa_1-2" data-name="Capa 1"><path class="cls-1" d="M19.25,18.16A14.53,14.53,0,0,1,21,25.87V37.66a2.75,2.75,0,0,1-.79,2,2.83,2.83,0,0,1-4,0,2.74,2.74,0,0,1-.78-2V25.87a7,7,0,0,0-1-4A3.9,3.9,0,0,0,11,20.44,5.3,5.3,0,0,0,7,22a5.5,5.5,0,0,0-1.45,3.89V37.66a2.74,2.74,0,0,1-.78,2,2.63,2.63,0,0,1-2,.81,2.63,2.63,0,0,1-2-.81,2.74,2.74,0,0,1-.78-2V9.21a2.78,2.78,0,0,1,.78-2,2.66,2.66,0,0,1,2-.8,2.66,2.66,0,0,1,2,.8,2.78,2.78,0,0,1,.78,2V19.38a11.37,11.37,0,0,1,3.16-2.83,8,8,0,0,1,4.26-1.17c3,0,5.14.92,6.31,2.78"/><path class="cls-1" d="M42.5,33.68a8.13,8.13,0,0,0,1.88-5.51,8.18,8.18,0,0,0-1.88-5.52,6.45,6.45,0,0,0-9.72,0,8.18,8.18,0,0,0-1.89,5.52,8.18,8.18,0,0,0,1.87,5.51,6.1,6.1,0,0,0,4.86,2.19,6.18,6.18,0,0,0,4.88-2.19m6.4-17.52a2.73,2.73,0,0,1,.78,2V37.66a2.74,2.74,0,0,1-.78,2,2.84,2.84,0,0,1-3.94,0,2.86,2.86,0,0,1-.8-2A9.49,9.49,0,0,1,41.05,40a9.4,9.4,0,0,1-4.13,1,10.53,10.53,0,0,1-5.75-1.64,11.33,11.33,0,0,1-4.07-4.53,14.12,14.12,0,0,1-1.5-6.59,14.49,14.49,0,0,1,1.47-6.6,11.33,11.33,0,0,1,4-4.56,10.28,10.28,0,0,1,5.64-1.63,10.62,10.62,0,0,1,4.15.8,11.17,11.17,0,0,1,3.27,2.05v-.05a2.76,2.76,0,0,1,.78-2,2.62,2.62,0,0,1,2-.8,2.7,2.7,0,0,1,2,.78"/><path class="cls-1" d="M72.56,33.65a8.18,8.18,0,0,0,1.89-5.52,8.18,8.18,0,0,0-1.86-5.5,6.51,6.51,0,0,0-9.74,0A8.09,8.09,0,0,0,61,28.13a8.18,8.18,0,0,0,1.89,5.52,6.42,6.42,0,0,0,9.71,0M74.17,17a11.46,11.46,0,0,1,4.08,4.54,14.08,14.08,0,0,1,1.5,6.58,14.51,14.51,0,0,1-1.48,6.61,11.23,11.23,0,0,1-4,4.55,10.24,10.24,0,0,1-5.64,1.64,9.82,9.82,0,0,1-4.16-.9,11,11,0,0,1-3.25-2.19v.28a2.74,2.74,0,0,1-.78,2,2.65,2.65,0,0,1-2,.81,2.68,2.68,0,0,1-2-.78,2.72,2.72,0,0,1-.79-2V9.21a2.75,2.75,0,0,1,.79-2,2.85,2.85,0,0,1,4,0,2.78,2.78,0,0,1,.78,2v9.62a9.55,9.55,0,0,1,3.08-2.42,8.85,8.85,0,0,1,4.15-1A10.5,10.5,0,0,1,74.17,17"/><path class="cls-1" d="M88.77,39.66a2.82,2.82,0,0,1-4,0,2.71,2.71,0,0,1-.78-2v-19a2.74,2.74,0,0,1,.78-2,2.85,2.85,0,0,1,4,0,2.78,2.78,0,0,1,.78,2v19a2.74,2.74,0,0,1-.78,2"/><path class="cls-1" d="M108.27,35.89a2.44,2.44,0,0,1,.53,1.63,2.48,2.48,0,0,1-1.36,2.1,5.64,5.64,0,0,1-3.06.85,9,9,0,0,1-4.82-1.22q-1.95-1.22-2-5.18V21.36H95.49a2.46,2.46,0,0,1-1.84-.74,2.49,2.49,0,0,1-.74-1.84A2.39,2.39,0,0,1,93.65,17a2.52,2.52,0,0,1,1.84-.72h2.12V13.35a2.75,2.75,0,0,1,2.81-2.81,2.58,2.58,0,0,1,1.93.81,2.74,2.74,0,0,1,.78,2v2.94h3.27A2.53,2.53,0,0,1,109,18.88a2.35,2.35,0,0,1-.74,1.77,2.55,2.55,0,0,1-1.84.71h-3.27V33.84a1.75,1.75,0,0,0,.51,1.4,2,2,0,0,0,1.38.44,4,4,0,0,0,1-.18,2.66,2.66,0,0,1,1.06-.24,1.55,1.55,0,0,1,1.18.63"/><path class="cls-1" d="M129.56,33.68a8.14,8.14,0,0,0,1.89-5.51,8.18,8.18,0,0,0-1.89-5.52,6.14,6.14,0,0,0-4.88-2.21,6.07,6.07,0,0,0-4.83,2.21A8.18,8.18,0,0,0,118,28.17a8.22,8.22,0,0,0,1.86,5.51,6.12,6.12,0,0,0,4.86,2.19,6.18,6.18,0,0,0,4.88-2.19M136,16.16a2.73,2.73,0,0,1,.78,2V37.66a2.74,2.74,0,0,1-.78,2,2.84,2.84,0,0,1-3.94,0,3,3,0,0,1-.8-2A10.07,10.07,0,0,1,124,40.93a10.54,10.54,0,0,1-5.76-1.64,11.48,11.48,0,0,1-4.07-4.53,14.12,14.12,0,0,1-1.5-6.59,14.37,14.37,0,0,1,1.48-6.6,11.26,11.26,0,0,1,4-4.56,10.23,10.23,0,0,1,5.64-1.63,10.61,10.61,0,0,1,4.14.8,10.91,10.91,0,0,1,3.27,2.05v-.05a2.76,2.76,0,0,1,.78-2,2.62,2.62,0,0,1,2-.8,2.68,2.68,0,0,1,2,.78"/><path class="cls-1" d="M155.78,35.89a2.46,2.46,0,0,1-.83,3.73,5.59,5.59,0,0,1-3.06.85,9,9,0,0,1-4.81-1.22q-2-1.22-2-5.18V21.36H143a2.51,2.51,0,0,1-2.58-2.58,2.38,2.38,0,0,1,.73-1.77,2.54,2.54,0,0,1,1.85-.72h2.11V13.35a2.77,2.77,0,0,1,2.81-2.81,2.6,2.6,0,0,1,1.94.81,2.74,2.74,0,0,1,.78,2v2.94h3.27a2.51,2.51,0,0,1,2.57,2.59,2.38,2.38,0,0,1-.73,1.77,2.57,2.57,0,0,1-1.84.71h-3.27V33.84a1.78,1.78,0,0,0,.5,1.4,2,2,0,0,0,1.39.44,4.06,4.06,0,0,0,1-.18,2.66,2.66,0,0,1,1.06-.24,1.51,1.51,0,0,1,1.17.63"/><path class="cls-1" d="M36.79,12.69S36.34.34,49.5,0c0,0-.6,12.43-12.71,12.69"/><path class="cls-1" d="M89.78,11.5A2.88,2.88,0,1,1,86.9,8.63a2.88,2.88,0,0,1,2.88,2.87"/><path class="cls-1" d="M172.14,7.07a7.33,7.33,0,0,0-7.3,7.26,7.31,7.31,0,0,0,7.25,7.35h0a7.31,7.31,0,0,0,0-14.61Zm0,13.62h0a6.35,6.35,0,0,1-4.46-1.88,6.24,6.24,0,0,1-1.8-4.47,6.32,6.32,0,1,1,6.31,6.35Z"/><path class="cls-1" d="M175.17,13.11a2.45,2.45,0,0,0-2.45-2.45h-2.53a.47.47,0,0,0-.47.47v6.69a.47.47,0,0,0,.94,0V11.6h2.06a1.51,1.51,0,0,1,0,3h-.58a.48.48,0,0,0-.44.28.44.44,0,0,0,.08.5l2.47,2.66a.46.46,0,0,0,.66,0,.47.47,0,0,0,0-.66l-1.77-1.92A2.44,2.44,0,0,0,175.17,13.11Z"/></g></g></svg>