<svg xmlns="http://www.w3.org/2000/svg" viewBox="0 0 171.57 38.26"><defs><style>.cls-1{fill:#19766c;}</style></defs><title>logo</title><g id="Capa_2" data-name="Capa 2"><g id="Capa_1-2" data-name="Capa 1"><path class="cls-1" d="M18,17a13.5,13.5,0,0,1,1.64,7.21v11a2.6,2.6,0,0,1-.74,1.88,2.46,2.46,0,0,1-1.85.75,2.49,2.49,0,0,1-1.85-.75,2.6,2.6,0,0,1-.73-1.88v-11a6.62,6.62,0,0,0-.92-3.73,3.66,3.66,0,0,0-3.25-1.35,4.92,4.92,0,0,0-3.77,1.44,5.11,5.11,0,0,0-1.36,3.64v11a2.6,2.6,0,0,1-.73,1.88,2.47,2.47,0,0,1-1.85.75,2.49,2.49,0,0,1-1.85-.75A2.6,2.6,0,0,1,0,35.2V8.6A2.57,2.57,0,0,1,.73,6.73,2.49,2.49,0,0,1,2.58,6a2.47,2.47,0,0,1,1.85.75A2.57,2.57,0,0,1,5.16,8.6v9.52a10.48,10.48,0,0,1,2.95-2.65,7.47,7.47,0,0,1,4-1.1q4.26,0,5.9,2.61"/><path class="cls-1" d="M39.72,31.48a7.57,7.57,0,0,0,1.77-5.14,7.67,7.67,0,0,0-1.77-5.17,6,6,0,0,0-9.08,0,7.71,7.71,0,0,0-1.76,5.17,7.66,7.66,0,0,0,1.74,5.14,6.07,6.07,0,0,0,9.1,0m6-16.38a2.56,2.56,0,0,1,.73,1.9V35.2a2.6,2.6,0,0,1-.73,1.88,2.49,2.49,0,0,1-1.85.75A2.46,2.46,0,0,1,42,37.1a2.7,2.7,0,0,1-.76-1.85,9.3,9.3,0,0,1-6.75,3,9.81,9.81,0,0,1-5.38-1.53,10.67,10.67,0,0,1-3.81-4.24,13.11,13.11,0,0,1-1.4-6.15,13.51,13.51,0,0,1,1.38-6.18,10.55,10.55,0,0,1,3.76-4.26,9.59,9.59,0,0,1,5.27-1.53,9.87,9.87,0,0,1,3.88.76A10.22,10.22,0,0,1,41.27,17v0A2.56,2.56,0,0,1,42,15.13a2.43,2.43,0,0,1,1.85-.76,2.55,2.55,0,0,1,1.85.73"/><path class="cls-1" d="M67.83,31.46a7.71,7.71,0,0,0,1.76-5.17,7.66,7.66,0,0,0-1.74-5.14,6.09,6.09,0,0,0-9.1,0A7.57,7.57,0,0,0,57,26.29a7.67,7.67,0,0,0,1.77,5.17,6,6,0,0,0,9.08,0M69.34,15.9a10.72,10.72,0,0,1,3.8,4.24,13.14,13.14,0,0,1,1.4,6.15,13.63,13.63,0,0,1-1.37,6.18,10.64,10.64,0,0,1-3.77,4.26,9.57,9.57,0,0,1-5.27,1.53,9.24,9.24,0,0,1-3.9-.84,10.15,10.15,0,0,1-3-2.05v.26a2.64,2.64,0,0,1-.73,1.88,2.49,2.49,0,0,1-1.86.75,2.55,2.55,0,0,1-1.85-.73,2.6,2.6,0,0,1-.73-1.9V8.6a2.61,2.61,0,0,1,.73-1.87,2.67,2.67,0,0,1,3.71,0A2.61,2.61,0,0,1,57.2,8.6v9a9,9,0,0,1,2.88-2.26,8.34,8.34,0,0,1,3.87-1,9.87,9.87,0,0,1,5.39,1.53"/><path class="cls-1" d="M83,37.08a2.49,2.49,0,0,1-1.85.75,2.46,2.46,0,0,1-1.85-.75,2.6,2.6,0,0,1-.74-1.88V17.43a2.56,2.56,0,0,1,.74-1.87,2.43,2.43,0,0,1,1.85-.76,2.46,2.46,0,0,1,1.85.76,2.56,2.56,0,0,1,.73,1.87V35.2A2.6,2.6,0,0,1,83,37.08"/><path class="cls-1" d="M101.2,33.55a2.2,2.2,0,0,1,.5,1.52,2.29,2.29,0,0,1-1.27,2,5.29,5.29,0,0,1-2.86.8,8.35,8.35,0,0,1-4.5-1.14q-1.83-1.14-1.83-4.84V20h-2a2.36,2.36,0,0,1-2.41-2.41,2.23,2.23,0,0,1,.69-1.66,2.39,2.39,0,0,1,1.72-.67h2V12.48A2.53,2.53,0,0,1,92,10.61a2.58,2.58,0,0,1,1.88-.76,2.45,2.45,0,0,1,1.81.76,2.6,2.6,0,0,1,.73,1.87v2.75h3a2.36,2.36,0,0,1,2.41,2.41,2.21,2.21,0,0,1-.69,1.66,2.35,2.35,0,0,1-1.72.67h-3V31.63a1.63,1.63,0,0,0,.47,1.31,1.89,1.89,0,0,0,1.29.41,3.52,3.52,0,0,0,1-.17,2.61,2.61,0,0,1,1-.22,1.41,1.41,0,0,1,1.09.59"/><path class="cls-1" d="M121.11,31.48a7.57,7.57,0,0,0,1.77-5.14,7.67,7.67,0,0,0-1.77-5.17,6,6,0,0,0-9.08,0,7.67,7.67,0,0,0-1.77,5.17A7.66,7.66,0,0,0,112,31.48a5.69,5.69,0,0,0,4.54,2.05,5.77,5.77,0,0,0,4.56-2.05m6-16.38a2.56,2.56,0,0,1,.73,1.9V35.2a2.6,2.6,0,0,1-.73,1.88,2.66,2.66,0,0,1-3.68,0,2.74,2.74,0,0,1-.75-1.85,9.34,9.34,0,0,1-6.76,3,9.84,9.84,0,0,1-5.38-1.53,10.74,10.74,0,0,1-3.81-4.24,13.23,13.23,0,0,1-1.4-6.15,13.51,13.51,0,0,1,1.38-6.18,10.57,10.57,0,0,1,3.77-4.26,9.57,9.57,0,0,1,5.27-1.53,9.79,9.79,0,0,1,3.87.76A10.15,10.15,0,0,1,122.66,17v0a2.56,2.56,0,0,1,.73-1.87,2.46,2.46,0,0,1,1.85-.76,2.53,2.53,0,0,1,1.85.73"/><path class="cls-1" d="M145.62,33.55a2.24,2.24,0,0,1,.5,1.52,2.31,2.31,0,0,1-1.27,2,5.32,5.32,0,0,1-2.87.8,8.29,8.29,0,0,1-4.49-1.14q-1.83-1.14-1.83-4.84V20h-2a2.36,2.36,0,0,1-2.41-2.41A2.23,2.23,0,0,1,132,15.9a2.38,2.38,0,0,1,1.72-.67h2V12.48a2.58,2.58,0,0,1,2.62-2.63,2.44,2.44,0,0,1,1.81.76,2.56,2.56,0,0,1,.73,1.87v2.75h3.06a2.36,2.36,0,0,1,2.41,2.41,2.21,2.21,0,0,1-.69,1.66,2.35,2.35,0,0,1-1.72.67h-3.06V31.63a1.66,1.66,0,0,0,.47,1.31,1.9,1.9,0,0,0,1.3.41,3.4,3.4,0,0,0,.94-.17,2.7,2.7,0,0,1,1-.22,1.44,1.44,0,0,1,1.1.59"/><path class="cls-1" d="M34.39,11.86S34,.32,46.27,0c0,0-.56,11.62-11.88,11.86"/><path class="cls-1" d="M83.92,10.75a2.69,2.69,0,1,1-2.69-2.68,2.68,2.68,0,0,1,2.69,2.68"/><path class="cls-1" d="M164.7,6.56a6.9,6.9,0,0,0-6.88,6.83,6.88,6.88,0,0,0,6.83,6.93h0a6.88,6.88,0,0,0,0-13.76Zm0,12.83h0a6,6,0,0,1-4.2-1.78,5.85,5.85,0,0,1-1.7-4.2,6,6,0,1,1,5.95,6Z"/><path class="cls-1" d="M167.55,12.25a2.32,2.32,0,0,0-2.3-2.31h-2.39a.44.44,0,0,0-.44.44v6.3a.44.44,0,1,0,.88,0V10.83h1.95a1.42,1.42,0,0,1,0,2.84h-.55a.47.47,0,0,0-.42.26.42.42,0,0,0,.08.47l2.32,2.51a.44.44,0,0,0,.63,0,.46.46,0,0,0,0-.63l-1.67-1.8A2.3,2.3,0,0,0,167.55,12.25Z"/></g></g></svg>