<svg xmlns="http://www.w3.org/2000/svg" viewBox="0 0 10.68 14.68"><defs><style>.cls-1{fill:#fff;}</style></defs><title>Recurso 38</title><g id="Capa_2" data-name="Capa 2"><g id="Capa_1-2" data-name="Capa 1"><path class="cls-1" d="M4.54,0a.45.45,0,0,0-.36,0L3.35.42A5.53,5.53,0,0,0,.47,7.69l1.74,3.84a5.54,5.54,0,0,0,7.36,2.64l.83-.39a.49.49,0,0,0,.24-.63L9.07,9.67a.49.49,0,0,0-.64-.24l-1.57.7a1.19,1.19,0,0,1-1.61-.56L4,6.7A1.19,1.19,0,0,1,4.6,5.12l1.56-.71a.51.51,0,0,0,.24-.65L4.83.29A.5.5,0,0,0,4.54,0Zm-.4,1.1L5.31,3.72l-1.12.51A2.19,2.19,0,0,0,3.06,7.1L4.37,10a2.18,2.18,0,0,0,2.89,1l1.13-.51L9.56,13.1l-.4.18A4.52,4.52,0,0,1,3.1,11.13L1.36,7.29a4.54,4.54,0,0,1,2.38-6l.4-.17Z"/></g></g></svg>