<svg xmlns="http://www.w3.org/2000/svg" viewBox="0 0 31.72 31.72"><defs><style>.cls-1,.cls-3{fill:#fff;}.cls-2{fill:#19766c;}.cls-3{fill-rule:evenodd;}</style></defs><title>Recurso 44</title><g id="Capa_2" data-name="Capa 2"><g id="Capa_1-2" data-name="Capa 1"><circle class="cls-1" cx="15.86" cy="15.86" r="15.86" transform="translate(-6.57 15.86) rotate(-45)"/><rect class="cls-2" x="9.96" y="9.32" width="12.48" height="12.48" rx="1.42"/><path class="cls-2" d="M20.59,7.09H11.66a4,4,0,0,0-4,4V20a4,4,0,0,0,4,4h8.93a4,4,0,0,0,4-4V11.09A4,4,0,0,0,20.59,7.09Zm3,12.93a3,3,0,0,1-3,3H11.66a3,3,0,0,1-3-3V11.09a3,3,0,0,1,3-3h8.93a3,3,0,0,1,3,3Z"/><path class="cls-3" d="M20.25,11a.88.88,0,1,0,.88.88.88.88,0,0,0-.88-.88Z"/><path class="cls-3" d="M19,15.55a2.92,2.92,0,1,0-2.92,2.93A2.92,2.92,0,0,0,19,15.55Z"/></g></g></svg>