<svg xmlns="http://www.w3.org/2000/svg" viewBox="0 0 200.83 203.48"><defs><style>.cls-1{fill:#80b47c;}.cls-2{fill:#c5d485;}.cls-3{font-size:47.68px;fill:#46807b;font-family:Quicksand-Bold, Quicksand Bold;font-weight:700;}.cls-4{letter-spacing:0.02em;}</style></defs><title>Recurso 5</title><g id="Capa_2" data-name="Capa 2"><g id="Capa_1-2" data-name="Capa 1"><path class="cls-1" d="M31.86,16.09C23.36,24.73,10.92,31,7.58,32.17,4.25,33.66,1.82,34,.3,34.56L0,62c12.44-2.09,21.54-6.26,25.48-8.64,1.82-1.19,3.34-2.38,4.86-3.58V200.8h35.5V2.68H42.17C37,10.13,35.5,12.21,31.86,16.09"/><path class="cls-1" d="M118.14,46.77c0-4.17-1.83-20.55,16.38-20.85,6.68,0,12.44,2.39,14.56,9.24a35.12,35.12,0,0,1,1.22,9.56,49.74,49.74,0,0,1,8.08-10.53,54.7,54.7,0,0,1,21.35-12.84C173.47,10.28,160.14,0,133.61,0c-5.77,0-28.52,0-41.87,17.28-6.37,8.34-7.89,16.38-8.49,26.52,0,3-.31,5.66-.31,8.34V69.79h35.2Z"/><path class="cls-1" d="M150.3,155.82c0,6.55,0,13.7-6.37,18.17a18.63,18.63,0,0,1-10.32,2.68c-16.08,0-15.47-14.3-15.47-18.48V123.72H82.94v30.9c0,11.62,1.22,16.09,3,21.75a37.07,37.07,0,0,0,9.1,14.6c10.92,10.43,25.79,12.51,40.05,12.51a77.12,77.12,0,0,0,18.81-2.08c21.23-6,27.6-22.65,29.43-30.09a55.25,55.25,0,0,0,1.82-15.79v-31.8H150.3Z"/><path class="cls-2" d="M186.14,62.07c8.37-8.24,14.79-20.41,14.68-38.44a60.86,60.86,0,0,0-17.18,3c-13.83,4.45-31.5,15.53-34.68,43.18h27.11a53.51,53.51,0,0,0,10.07-7.72"/><text class="cls-3" transform="translate(76.27 110.33)"><tspan class="cls-4">año</tspan><tspan x="78.49" y="0">s</tspan></text></g></g></svg>